<mxfile host="app.diagrams.net" modified="2022-08-30T03:45:37.058Z" agent="5.0 (Windows NT 10.0; Win64; x64) AppleWebKit/537.36 (KHTML, like Gecko) Chrome/104.0.0.0 Safari/537.36" etag="UDNBf66-4-BMPSq41_Z-" version="20.2.7" type="github">
  <diagram id="9SGz_3kiO0j2LCHkOoaa" name="페이지-1">
    <mxGraphModel dx="2062" dy="1146" grid="1" gridSize="10" guides="1" tooltips="1" connect="1" arrows="1" fold="1" page="1" pageScale="1" pageWidth="827" pageHeight="1169" math="0" shadow="0">
      <root>
        <mxCell id="0" />
        <mxCell id="1" parent="0" />
        <mxCell id="HCUumG6FDyRypIh7QbpN-4" value="" style="points=[[0,0],[0.25,0],[0.5,0],[0.75,0],[1,0],[1,0.25],[1,0.5],[1,0.75],[1,1],[0.75,1],[0.5,1],[0.25,1],[0,1],[0,0.75],[0,0.5],[0,0.25]];outlineConnect=0;gradientColor=none;html=1;whiteSpace=wrap;fontSize=12;fontStyle=0;container=1;pointerEvents=0;collapsible=0;recursiveResize=0;shape=mxgraph.aws4.group;grIcon=mxgraph.aws4.group_vpc;strokeColor=#248814;fillColor=none;verticalAlign=top;align=left;spacingLeft=30;fontColor=#AAB7B8;dashed=0;" parent="1" vertex="1">
          <mxGeometry x="170" y="100" width="500" height="170" as="geometry" />
        </mxCell>
        <mxCell id="HCUumG6FDyRypIh7QbpN-9" value="" style="endArrow=none;html=1;rounded=0;exitX=1;exitY=0.5;exitDx=0;exitDy=0;exitPerimeter=0;entryX=0;entryY=0.5;entryDx=0;entryDy=0;entryPerimeter=0;" parent="HCUumG6FDyRypIh7QbpN-4" source="HCUumG6FDyRypIh7QbpN-20" target="HCUumG6FDyRypIh7QbpN-23" edge="1">
          <mxGeometry width="50" height="50" relative="1" as="geometry">
            <mxPoint x="160" y="85" as="sourcePoint" />
            <mxPoint x="340" y="85" as="targetPoint" />
          </mxGeometry>
        </mxCell>
        <mxCell id="HCUumG6FDyRypIh7QbpN-20" value="EC2&lt;br&gt;웹서버" style="sketch=0;points=[[0,0,0],[0.25,0,0],[0.5,0,0],[0.75,0,0],[1,0,0],[0,1,0],[0.25,1,0],[0.5,1,0],[0.75,1,0],[1,1,0],[0,0.25,0],[0,0.5,0],[0,0.75,0],[1,0.25,0],[1,0.5,0],[1,0.75,0]];outlineConnect=0;fontColor=#232F3E;gradientColor=#F78E04;gradientDirection=north;fillColor=#D05C17;strokeColor=#ffffff;dashed=0;verticalLabelPosition=bottom;verticalAlign=top;align=center;html=1;fontSize=12;fontStyle=0;aspect=fixed;shape=mxgraph.aws4.resourceIcon;resIcon=mxgraph.aws4.ec2;" parent="HCUumG6FDyRypIh7QbpN-4" vertex="1">
          <mxGeometry x="70" y="46" width="78" height="78" as="geometry" />
        </mxCell>
        <mxCell id="HCUumG6FDyRypIh7QbpN-23" value="RDS&lt;br&gt;DB서버" style="sketch=0;points=[[0,0,0],[0.25,0,0],[0.5,0,0],[0.75,0,0],[1,0,0],[0,1,0],[0.25,1,0],[0.5,1,0],[0.75,1,0],[1,1,0],[0,0.25,0],[0,0.5,0],[0,0.75,0],[1,0.25,0],[1,0.5,0],[1,0.75,0]];outlineConnect=0;fontColor=#232F3E;gradientColor=#4D72F3;gradientDirection=north;fillColor=#3334B9;strokeColor=#ffffff;dashed=0;verticalLabelPosition=bottom;verticalAlign=top;align=center;html=1;fontSize=12;fontStyle=0;aspect=fixed;shape=mxgraph.aws4.resourceIcon;resIcon=mxgraph.aws4.rds;" parent="HCUumG6FDyRypIh7QbpN-4" vertex="1">
          <mxGeometry x="350" y="46" width="78" height="78" as="geometry" />
        </mxCell>
        <mxCell id="HCUumG6FDyRypIh7QbpN-24" value="VPC&amp;nbsp;가상네트워크" style="sketch=0;points=[[0,0,0],[0.25,0,0],[0.5,0,0],[0.75,0,0],[1,0,0],[0,1,0],[0.25,1,0],[0.5,1,0],[0.75,1,0],[1,1,0],[0,0.25,0],[0,0.5,0],[0,0.75,0],[1,0.25,0],[1,0.5,0],[1,0.75,0]];outlineConnect=0;fontColor=#232F3E;gradientColor=#945DF2;gradientDirection=north;fillColor=#5A30B5;strokeColor=#ffffff;dashed=0;verticalLabelPosition=bottom;verticalAlign=top;align=center;html=1;fontSize=12;fontStyle=0;aspect=fixed;shape=mxgraph.aws4.resourceIcon;resIcon=mxgraph.aws4.vpc;" parent="HCUumG6FDyRypIh7QbpN-4" vertex="1">
          <mxGeometry x="-30" y="-50" width="78" height="78" as="geometry" />
        </mxCell>
        <mxCell id="HCUumG6FDyRypIh7QbpN-18" value="" style="endArrow=none;html=1;rounded=0;entryX=0;entryY=0.5;entryDx=0;entryDy=0;entryPerimeter=0;exitX=0.897;exitY=0.513;exitDx=0;exitDy=0;exitPerimeter=0;" parent="1" source="HCUumG6FDyRypIh7QbpN-26" target="HCUumG6FDyRypIh7QbpN-22" edge="1">
          <mxGeometry width="50" height="50" relative="1" as="geometry">
            <mxPoint x="444" y="554" as="sourcePoint" />
            <mxPoint x="554" y="604.2105263157894" as="targetPoint" />
          </mxGeometry>
        </mxCell>
        <mxCell id="HCUumG6FDyRypIh7QbpN-19" value="" style="endArrow=none;html=1;rounded=0;exitX=1;exitY=0.5;exitDx=0;exitDy=0;exitPerimeter=0;entryX=0;entryY=0.5;entryDx=0;entryDy=0;entryPerimeter=0;" parent="1" source="HCUumG6FDyRypIh7QbpN-27" target="HCUumG6FDyRypIh7QbpN-22" edge="1">
          <mxGeometry width="50" height="50" relative="1" as="geometry">
            <mxPoint x="444" y="683.1578947368421" as="sourcePoint" />
            <mxPoint x="554" y="636.8421052631579" as="targetPoint" />
          </mxGeometry>
        </mxCell>
        <mxCell id="HCUumG6FDyRypIh7QbpN-22" value="RDS&lt;br&gt;DB서버" style="sketch=0;points=[[0,0,0],[0.25,0,0],[0.5,0,0],[0.75,0,0],[1,0,0],[0,1,0],[0.25,1,0],[0.5,1,0],[0.75,1,0],[1,1,0],[0,0.25,0],[0,0.5,0],[0,0.75,0],[1,0.25,0],[1,0.5,0],[1,0.75,0]];outlineConnect=0;fontColor=#232F3E;gradientColor=#4D72F3;gradientDirection=north;fillColor=#3334B9;strokeColor=#ffffff;dashed=0;verticalLabelPosition=bottom;verticalAlign=top;align=center;html=1;fontSize=12;fontStyle=0;aspect=fixed;shape=mxgraph.aws4.resourceIcon;resIcon=mxgraph.aws4.rds;" parent="1" vertex="1">
          <mxGeometry x="473" y="570" width="78" height="78" as="geometry" />
        </mxCell>
        <mxCell id="HCUumG6FDyRypIh7QbpN-41" value="" style="edgeStyle=orthogonalEdgeStyle;rounded=0;orthogonalLoop=1;jettySize=auto;html=1;entryX=0;entryY=0.5;entryDx=0;entryDy=0;entryPerimeter=0;strokeColor=default;endArrow=none;endFill=0;" parent="1" source="HCUumG6FDyRypIh7QbpN-26" target="HCUumG6FDyRypIh7QbpN-38" edge="1">
          <mxGeometry relative="1" as="geometry" />
        </mxCell>
        <mxCell id="HCUumG6FDyRypIh7QbpN-26" value="EC2&lt;br&gt;웹서버" style="sketch=0;points=[[0,0,0],[0.25,0,0],[0.5,0,0],[0.75,0,0],[1,0,0],[0,1,0],[0.25,1,0],[0.5,1,0],[0.75,1,0],[1,1,0],[0,0.25,0],[0,0.5,0],[0,0.75,0],[1,0.25,0],[1,0.5,0],[1,0.75,0]];outlineConnect=0;fontColor=#232F3E;gradientColor=#F78E04;gradientDirection=north;fillColor=#D05C17;strokeColor=#ffffff;dashed=0;verticalLabelPosition=bottom;verticalAlign=top;align=center;html=1;fontSize=12;fontStyle=0;aspect=fixed;shape=mxgraph.aws4.resourceIcon;resIcon=mxgraph.aws4.ec2;" parent="1" vertex="1">
          <mxGeometry x="364" y="482" width="78" height="78" as="geometry" />
        </mxCell>
        <mxCell id="HCUumG6FDyRypIh7QbpN-27" value="EC2&lt;br&gt;웹서버" style="sketch=0;points=[[0,0,0],[0.25,0,0],[0.5,0,0],[0.75,0,0],[1,0,0],[0,1,0],[0.25,1,0],[0.5,1,0],[0.75,1,0],[1,1,0],[0,0.25,0],[0,0.5,0],[0,0.75,0],[1,0.25,0],[1,0.5,0],[1,0.75,0]];outlineConnect=0;fontColor=#232F3E;gradientColor=#F78E04;gradientDirection=north;fillColor=#D05C17;strokeColor=#ffffff;dashed=0;verticalLabelPosition=bottom;verticalAlign=top;align=center;html=1;fontSize=12;fontStyle=0;aspect=fixed;shape=mxgraph.aws4.resourceIcon;resIcon=mxgraph.aws4.ec2;" parent="1" vertex="1">
          <mxGeometry x="364" y="638" width="78" height="78" as="geometry" />
        </mxCell>
        <mxCell id="HCUumG6FDyRypIh7QbpN-29" value="" style="outlineConnect=0;dashed=0;verticalLabelPosition=bottom;verticalAlign=top;align=center;html=1;shape=mxgraph.aws3.cloud_2;fillColor=#F58534;gradientColor=none;" parent="1" vertex="1">
          <mxGeometry x="20" y="50" width="75" height="75" as="geometry" />
        </mxCell>
        <mxCell id="HCUumG6FDyRypIh7QbpN-31" value="ELB&lt;br&gt;로드밸런서" style="outlineConnect=0;dashed=0;verticalLabelPosition=bottom;verticalAlign=top;align=center;html=1;shape=mxgraph.aws3.classic_load_balancer;fillColor=#F58534;gradientColor=none;" parent="1" vertex="1">
          <mxGeometry x="194" y="560" width="69" height="72" as="geometry" />
        </mxCell>
        <mxCell id="HCUumG6FDyRypIh7QbpN-32" value="" style="endArrow=none;html=1;rounded=0;exitX=1;exitY=0.5;exitDx=0;exitDy=0;exitPerimeter=0;entryX=0;entryY=0.5;entryDx=0;entryDy=0;entryPerimeter=0;" parent="1" source="HCUumG6FDyRypIh7QbpN-31" target="HCUumG6FDyRypIh7QbpN-26" edge="1">
          <mxGeometry width="50" height="50" relative="1" as="geometry">
            <mxPoint x="234" y="840" as="sourcePoint" />
            <mxPoint x="284" y="790" as="targetPoint" />
            <Array as="points">
              <mxPoint x="323" y="596" />
              <mxPoint x="323" y="520" />
            </Array>
          </mxGeometry>
        </mxCell>
        <mxCell id="HCUumG6FDyRypIh7QbpN-33" value="" style="endArrow=none;html=1;rounded=0;exitX=1;exitY=0.5;exitDx=0;exitDy=0;exitPerimeter=0;entryX=0;entryY=0.5;entryDx=0;entryDy=0;entryPerimeter=0;" parent="1" edge="1">
          <mxGeometry width="50" height="50" relative="1" as="geometry">
            <mxPoint x="262" y="596" as="sourcePoint" />
            <mxPoint x="363" y="677" as="targetPoint" />
            <Array as="points">
              <mxPoint x="323" y="596" />
              <mxPoint x="323" y="677" />
            </Array>
          </mxGeometry>
        </mxCell>
        <mxCell id="HCUumG6FDyRypIh7QbpN-34" value="VPC" style="sketch=0;outlineConnect=0;gradientColor=none;html=1;whiteSpace=wrap;fontSize=12;fontStyle=0;shape=mxgraph.aws4.group;grIcon=mxgraph.aws4.group_vpc;strokeColor=#879196;fillColor=none;verticalAlign=top;align=left;spacingLeft=30;fontColor=#879196;dashed=0;" parent="1" vertex="1">
          <mxGeometry x="173" y="444" width="489" height="330" as="geometry" />
        </mxCell>
        <mxCell id="HCUumG6FDyRypIh7QbpN-35" value="VPC&amp;nbsp;가상네트워크" style="sketch=0;points=[[0,0,0],[0.25,0,0],[0.5,0,0],[0.75,0,0],[1,0,0],[0,1,0],[0.25,1,0],[0.5,1,0],[0.75,1,0],[1,1,0],[0,0.25,0],[0,0.5,0],[0,0.75,0],[1,0.25,0],[1,0.5,0],[1,0.75,0]];outlineConnect=0;fontColor=#232F3E;gradientColor=#945DF2;gradientDirection=north;fillColor=#5A30B5;strokeColor=#ffffff;dashed=0;verticalLabelPosition=bottom;verticalAlign=top;align=center;html=1;fontSize=12;fontStyle=0;aspect=fixed;shape=mxgraph.aws4.resourceIcon;resIcon=mxgraph.aws4.vpc;" parent="1" vertex="1">
          <mxGeometry x="154" y="410" width="78" height="78" as="geometry" />
        </mxCell>
        <mxCell id="HCUumG6FDyRypIh7QbpN-36" value="" style="outlineConnect=0;dashed=0;verticalLabelPosition=bottom;verticalAlign=top;align=center;html=1;shape=mxgraph.aws3.cloud_2;fillColor=#F58534;gradientColor=none;" parent="1" vertex="1">
          <mxGeometry x="20" y="411.5" width="75" height="75" as="geometry" />
        </mxCell>
        <mxCell id="HCUumG6FDyRypIh7QbpN-40" value="" style="edgeStyle=orthogonalEdgeStyle;rounded=0;orthogonalLoop=1;jettySize=auto;html=1;endArrow=none;endFill=0;" parent="1" target="HCUumG6FDyRypIh7QbpN-38" edge="1">
          <mxGeometry relative="1" as="geometry">
            <mxPoint x="751" y="521" as="sourcePoint" />
          </mxGeometry>
        </mxCell>
        <mxCell id="HCUumG6FDyRypIh7QbpN-37" value="S3&lt;br&gt;파일서버" style="sketch=0;points=[[0,0,0],[0.25,0,0],[0.5,0,0],[0.75,0,0],[1,0,0],[0,1,0],[0.25,1,0],[0.5,1,0],[0.75,1,0],[1,1,0],[0,0.25,0],[0,0.5,0],[0,0.75,0],[1,0.25,0],[1,0.5,0],[1,0.75,0]];outlineConnect=0;fontColor=#232F3E;gradientColor=#60A337;gradientDirection=north;fillColor=#277116;strokeColor=#ffffff;dashed=0;verticalLabelPosition=bottom;verticalAlign=top;align=center;html=1;fontSize=12;fontStyle=0;aspect=fixed;shape=mxgraph.aws4.resourceIcon;resIcon=mxgraph.aws4.s3;" parent="1" vertex="1">
          <mxGeometry x="710" y="482" width="78" height="78" as="geometry" />
        </mxCell>
        <mxCell id="HCUumG6FDyRypIh7QbpN-46" value="" style="edgeStyle=orthogonalEdgeStyle;rounded=0;orthogonalLoop=1;jettySize=auto;html=1;endArrow=none;endFill=0;strokeColor=default;entryX=1;entryY=0.75;entryDx=0;entryDy=0;entryPerimeter=0;" parent="1" source="HCUumG6FDyRypIh7QbpN-38" target="HCUumG6FDyRypIh7QbpN-27" edge="1">
          <mxGeometry relative="1" as="geometry">
            <mxPoint x="595" y="621" as="targetPoint" />
            <Array as="points">
              <mxPoint x="595" y="697" />
            </Array>
          </mxGeometry>
        </mxCell>
        <mxCell id="HCUumG6FDyRypIh7QbpN-38" value="게이트웨이&lt;br&gt;엔드포인트" style="sketch=0;aspect=fixed;pointerEvents=1;shadow=0;dashed=0;html=1;strokeColor=none;labelPosition=center;verticalLabelPosition=bottom;verticalAlign=top;align=center;fillColor=#00188D;shape=mxgraph.mscae.enterprise.gateway;rotation=0;" parent="1" vertex="1">
          <mxGeometry x="570" y="496" width="50" height="50" as="geometry" />
        </mxCell>
        <mxCell id="HCUumG6FDyRypIh7QbpN-47" value="Direct Connect" style="sketch=0;outlineConnect=0;fontColor=#232F3E;gradientColor=none;strokeColor=#ffffff;fillColor=#232F3E;dashed=0;verticalLabelPosition=middle;verticalAlign=bottom;align=center;html=1;whiteSpace=wrap;fontSize=10;fontStyle=1;spacing=3;shape=mxgraph.aws4.productIcon;prIcon=mxgraph.aws4.direct_connect;" parent="1" vertex="1">
          <mxGeometry x="188.5" y="740" width="80" height="110" as="geometry" />
        </mxCell>
        <mxCell id="HCUumG6FDyRypIh7QbpN-51" value="" style="edgeStyle=orthogonalEdgeStyle;rounded=0;orthogonalLoop=1;jettySize=auto;html=1;endArrow=none;endFill=0;strokeColor=default;" parent="1" source="HCUumG6FDyRypIh7QbpN-50" target="HCUumG6FDyRypIh7QbpN-47" edge="1">
          <mxGeometry relative="1" as="geometry" />
        </mxCell>
        <mxCell id="HCUumG6FDyRypIh7QbpN-50" value="사내" style="sketch=0;outlineConnect=0;fontColor=#232F3E;gradientColor=none;strokeColor=#232F3E;fillColor=#ffffff;dashed=0;verticalLabelPosition=bottom;verticalAlign=top;align=center;html=1;fontSize=12;fontStyle=0;aspect=fixed;shape=mxgraph.aws4.resourceIcon;resIcon=mxgraph.aws4.office_building;" parent="1" vertex="1">
          <mxGeometry x="187.5" y="890" width="81" height="81" as="geometry" />
        </mxCell>
        <mxCell id="TlwL3oAyvGs5oIUFT9y_-1" value="&lt;font style=&quot;font-size: 17px;&quot;&gt;&lt;b&gt;소규모 사이트&lt;/b&gt;&lt;/font&gt;" style="text;html=1;align=center;verticalAlign=middle;resizable=0;points=[];autosize=1;strokeColor=none;fillColor=none;" vertex="1" parent="1">
          <mxGeometry x="10" y="10" width="130" height="30" as="geometry" />
        </mxCell>
        <mxCell id="TlwL3oAyvGs5oIUFT9y_-2" value="&lt;span style=&quot;font-size: 17px;&quot;&gt;&lt;b&gt;업무 사이트&lt;/b&gt;&lt;/span&gt;" style="text;html=1;align=center;verticalAlign=middle;resizable=0;points=[];autosize=1;strokeColor=none;fillColor=none;" vertex="1" parent="1">
          <mxGeometry x="10" y="360" width="110" height="30" as="geometry" />
        </mxCell>
      </root>
    </mxGraphModel>
  </diagram>
</mxfile>
